<svg id="svg" version="1.1" xmlns="http://www.w3.org/2000/svg" xmlns:xlink="http://www.w3.org/1999/xlink" width="400" height="381.8181818181818" viewBox="0, 0, 400,381.8181818181818"><g id="svgg"><path id="path0" d="M396.944 0.713 C 396.944 1.732,398.396 3.438,399.264 3.438 C 399.882 3.438,400.000 3.162,400.000 1.719 L 400.000 0.000 398.472 0.000 C 397.235 0.000,396.944 0.136,396.944 0.713 M149.878 77.115 C 149.332 78.218,149.236 78.845,149.495 79.621 C 149.757 80.407,149.687 80.825,149.202 81.360 C 148.698 81.917,148.486 83.407,148.185 88.501 C 147.851 94.154,147.709 95.039,147.022 95.771 C 146.345 96.492,146.202 97.318,145.962 101.884 C 145.752 105.861,145.469 107.776,144.812 109.647 C 144.085 111.718,143.913 113.144,143.773 118.243 C 143.583 125.199,143.465 126.074,142.712 126.074 C 141.941 126.074,141.798 126.833,141.576 132.104 C 141.391 136.505,140.901 139.518,140.225 140.401 C 139.638 141.170,139.435 142.971,139.421 147.557 C 139.402 153.651,138.785 158.072,138.087 157.117 C 137.406 156.186,137.220 157.188,137.040 162.751 C 136.928 166.215,136.687 167.767,135.901 170.089 C 134.977 172.816,134.899 173.570,134.837 180.326 C 134.757 188.893,134.963 189.747,135.555 183.312 C 135.942 179.097,136.076 178.563,136.951 177.752 C 137.908 176.864,137.918 176.792,137.951 170.472 C 137.981 164.805,138.487 158.096,138.631 161.462 C 138.659 162.119,138.933 162.865,139.239 163.120 C 139.959 163.717,140.097 163.069,140.365 157.805 C 140.552 154.160,140.653 153.738,141.536 152.919 C 142.442 152.079,142.503 151.789,142.505 148.313 C 142.509 142.870,142.893 139.446,143.499 139.446 C 144.324 139.446,144.794 138.110,144.802 135.746 C 144.815 132.146,145.440 128.736,146.252 127.842 C 146.882 127.149,147.022 126.251,147.200 121.738 C 147.388 116.971,147.492 116.358,148.249 115.552 C 148.955 114.799,149.174 113.846,149.620 109.577 C 150.186 104.153,150.386 103.152,150.906 103.152 C 151.409 103.152,151.984 99.492,152.008 96.133 C 152.025 93.879,152.235 92.704,152.844 91.444 C 155.104 86.776,154.862 77.712,152.440 76.281 C 150.923 75.385,150.697 75.458,149.878 77.115 M257.677 94.556 C 257.578 94.871,257.426 95.362,257.339 95.648 C 257.252 95.933,256.639 96.275,255.977 96.407 C 254.247 96.753,254.943 97.486,256.799 97.273 C 257.642 97.176,258.370 97.041,258.417 96.972 C 258.463 96.904,258.883 96.346,259.348 95.732 C 260.001 94.870,260.083 94.544,259.706 94.305 C 258.920 93.806,257.870 93.936,257.677 94.556 M251.676 98.459 C 251.100 98.546,250.125 99.122,249.509 99.738 C 248.892 100.355,248.147 100.860,247.854 100.860 C 247.560 100.860,246.947 101.289,246.490 101.815 C 246.033 102.340,245.255 102.770,244.761 102.770 C 244.267 102.770,243.535 103.132,243.135 103.575 C 242.734 104.017,241.783 104.698,241.021 105.086 C 240.259 105.475,239.534 106.059,239.410 106.383 C 239.285 106.707,238.817 106.972,238.370 106.972 C 237.922 106.972,237.088 107.473,236.517 108.084 C 235.946 108.696,234.845 109.461,234.072 109.784 C 233.298 110.107,232.665 110.550,232.665 110.768 C 232.665 110.986,232.106 111.398,231.423 111.684 C 230.740 111.969,229.937 112.497,229.639 112.857 C 229.340 113.217,228.567 113.760,227.920 114.065 C 227.273 114.370,226.141 115.042,225.406 115.560 C 224.670 116.077,223.489 116.892,222.779 117.371 C 222.070 117.851,221.090 118.645,220.601 119.138 C 220.113 119.630,218.898 120.576,217.903 121.239 C 216.907 121.902,215.721 122.703,215.266 123.018 C 214.812 123.333,213.942 123.926,213.333 124.336 C 212.724 124.746,211.697 125.605,211.051 126.246 C 210.033 127.257,206.484 130.001,203.861 131.805 C 203.403 132.120,202.647 132.765,202.182 133.238 C 201.718 133.711,201.118 134.097,200.849 134.097 C 200.581 134.097,199.918 134.570,199.376 135.148 C 197.989 136.626,196.747 137.677,195.415 138.500 C 194.785 138.890,193.828 139.649,193.289 140.187 C 192.750 140.725,191.756 141.595,191.081 142.120 C 190.405 142.646,188.810 144.067,187.537 145.278 C 186.263 146.490,184.825 147.694,184.342 147.953 C 183.445 148.434,180.418 151.043,176.600 154.626 C 175.427 155.726,174.194 156.713,173.860 156.820 C 173.525 156.926,172.564 157.813,171.726 158.791 C 170.887 159.768,169.973 160.759,169.694 160.991 C 169.415 161.223,168.161 162.352,166.907 163.499 C 165.654 164.646,164.227 165.849,163.738 166.173 C 163.249 166.497,161.950 167.668,160.851 168.775 C 159.752 169.882,158.527 170.963,158.128 171.176 C 157.729 171.390,157.402 171.744,157.402 171.963 C 157.402 172.476,154.148 175.740,153.638 175.740 C 153.425 175.740,153.143 176.080,153.012 176.494 C 152.880 176.909,152.353 177.579,151.840 177.982 C 151.327 178.385,150.907 178.902,150.907 179.129 C 150.907 179.357,150.435 179.844,149.857 180.211 C 149.279 180.579,148.663 181.108,148.489 181.387 C 148.314 181.667,147.752 182.055,147.240 182.249 C 146.728 182.444,146.153 183.013,145.963 183.513 C 145.773 184.013,145.257 184.517,144.816 184.632 C 144.368 184.749,143.835 185.356,143.608 186.006 C 143.385 186.646,142.873 187.275,142.470 187.403 C 142.068 187.530,141.738 187.897,141.738 188.217 C 141.738 188.537,141.137 189.502,140.401 190.361 C 139.638 191.253,139.064 192.338,139.064 192.889 C 139.064 193.465,138.542 194.401,137.772 195.208 C 136.139 196.918,135.599 199.231,136.762 199.535 C 137.377 199.696,137.595 199.493,137.843 198.531 C 138.059 197.694,138.417 197.288,139.013 197.201 C 139.485 197.132,140.055 196.673,140.280 196.180 C 140.504 195.687,141.084 195.184,141.569 195.062 C 142.101 194.929,142.498 194.503,142.571 193.986 C 142.640 193.503,143.016 193.070,143.434 192.990 C 144.274 192.829,147.469 189.775,147.469 189.132 C 147.469 188.901,147.903 188.546,148.434 188.344 C 148.965 188.142,149.504 187.703,149.632 187.369 C 149.760 187.035,150.275 186.605,150.775 186.415 C 151.276 186.225,151.850 185.636,152.051 185.107 C 152.252 184.578,152.582 184.145,152.784 184.145 C 152.986 184.145,154.190 183.157,155.460 181.948 C 156.730 180.740,159.232 178.634,161.019 177.268 C 162.807 175.903,165.889 173.195,167.868 171.251 C 169.848 169.308,171.624 167.717,171.815 167.717 C 172.007 167.717,173.164 166.772,174.386 165.616 C 175.608 164.460,176.753 163.515,176.931 163.515 C 177.108 163.515,179.056 161.968,181.259 160.076 C 183.462 158.185,185.412 156.638,185.592 156.638 C 185.772 156.638,186.887 155.735,188.070 154.632 C 189.253 153.529,191.119 152.025,192.217 151.289 C 193.314 150.554,194.650 149.479,195.185 148.902 C 195.721 148.324,196.353 147.851,196.590 147.851 C 196.977 147.851,198.138 146.935,200.382 144.859 C 200.802 144.470,201.662 143.825,202.292 143.425 C 202.923 143.025,204.384 141.795,205.540 140.692 C 206.695 139.589,207.737 138.685,207.853 138.684 C 208.146 138.681,213.829 134.445,215.473 133.006 C 216.737 131.898,217.953 130.956,221.314 128.479 C 222.596 127.534,224.010 126.430,227.316 123.793 C 227.841 123.374,228.980 122.426,229.846 121.687 C 230.712 120.948,231.619 120.344,231.862 120.344 C 232.284 120.344,233.999 118.920,235.967 116.936 C 236.472 116.427,237.525 115.695,238.309 115.310 C 240.171 114.392,242.206 112.887,242.873 111.935 C 243.166 111.517,243.648 111.175,243.944 111.175 C 244.240 111.175,245.084 110.573,245.820 109.838 C 246.639 109.019,247.529 108.500,248.118 108.500 C 248.828 108.500,249.142 108.247,249.323 107.527 C 249.495 106.838,249.899 106.486,250.700 106.326 C 251.359 106.194,251.997 105.740,252.224 105.241 C 252.439 104.769,253.026 104.195,253.528 103.966 C 254.030 103.737,254.441 103.293,254.441 102.979 C 254.441 102.665,254.957 102.141,255.587 101.815 C 258.885 100.110,256.166 97.777,251.676 98.459 M258.835 98.949 C 258.965 99.160,259.405 99.331,259.812 99.331 C 260.220 99.331,260.554 99.160,260.554 98.949 C 260.554 98.739,260.114 98.567,259.576 98.567 C 259.022 98.567,258.701 98.733,258.835 98.949 M127.919 222.732 C 127.839 223.572,127.907 224.260,128.070 224.260 C 128.233 224.260,128.367 223.572,128.367 222.732 C 128.367 221.891,128.299 221.203,128.216 221.203 C 128.133 221.203,127.999 221.891,127.919 222.732 M252.318 240.112 C 251.910 240.426,250.664 240.956,249.549 241.291 C 246.814 242.113,247.144 242.801,250.248 242.748 C 252.256 242.714,252.781 242.563,253.352 241.858 C 253.731 241.391,254.506 240.884,255.075 240.732 C 255.645 240.580,256.179 240.249,256.263 239.998 C 256.488 239.322,253.223 239.416,252.318 240.112 M241.261 243.708 C 240.000 243.835,238.717 244.099,238.409 244.296 C 238.102 244.493,237.156 244.777,236.308 244.927 C 235.460 245.077,233.280 245.458,231.465 245.773 C 229.649 246.089,227.790 246.547,227.333 246.791 C 226.876 247.036,225.611 247.289,224.522 247.353 C 218.549 247.707,207.718 248.819,205.731 249.281 C 204.470 249.575,201.117 249.921,198.281 250.049 C 195.444 250.178,191.662 250.520,189.876 250.809 C 182.226 252.045,175.037 252.430,150.369 252.924 C 133.562 253.260,130.620 253.430,132.161 253.975 C 132.461 254.082,133.111 254.604,133.604 255.137 C 134.487 256.089,134.620 256.109,142.102 256.378 C 146.283 256.529,149.888 256.767,150.114 256.906 C 151.142 257.542,167.599 258.224,172.875 257.849 C 175.817 257.640,181.834 257.317,186.246 257.131 C 197.341 256.663,200.558 256.372,202.051 255.703 C 202.759 255.386,205.080 254.955,207.209 254.746 C 209.337 254.537,212.461 253.958,214.150 253.461 C 215.840 252.964,218.246 252.455,219.499 252.331 C 222.066 252.077,224.489 251.554,226.743 250.769 C 227.584 250.476,229.453 250.075,230.897 249.878 C 232.566 249.650,233.820 249.248,234.336 248.777 C 234.821 248.334,236.226 247.854,237.822 247.585 C 239.293 247.337,240.859 246.899,241.303 246.612 C 241.746 246.324,243.122 245.800,244.359 245.447 C 249.463 243.992,247.792 243.054,241.261 243.708 M397.891 375.263 C 397.324 375.946,395.933 377.492,394.801 378.699 C 391.865 381.828,391.966 382.044,396.371 382.044 L 400.000 382.044 400.000 378.032 C 400.000 373.513,399.686 373.100,397.891 375.263 M0.000 380.707 C 0.000 381.980,0.064 382.044,1.337 382.044 C 2.877 382.044,3.176 381.088,1.976 380.002 C 0.777 378.917,0.000 379.194,0.000 380.707 " stroke="none" fill="#b8ad87" fill-rule="evenodd"></path><path id="path1" d="M0.008 189.207 L 0.017 378.415 1.250 378.988 C 2.083 379.375,2.602 379.963,2.849 380.802 L 3.214 382.044 197.787 382.044 C 389.814 382.044,392.359 382.034,392.359 381.306 C 392.359 380.395,398.327 373.223,399.296 372.970 C 400.428 372.674,400.396 4.202,399.264 4.202 C 398.365 4.202,396.967 2.504,396.678 1.061 L 396.466 0.000 198.233 0.000 L 0.000 0.000 0.008 189.207 M153.718 75.288 C 155.205 76.458,156.036 79.690,155.721 83.075 C 155.582 84.556,155.315 87.800,155.127 90.281 C 154.902 93.246,154.578 95.109,154.183 95.712 C 153.852 96.217,153.582 97.045,153.582 97.551 C 153.582 99.271,151.979 107.919,151.482 108.881 C 151.210 109.407,150.803 112.159,150.579 114.995 C 150.354 117.832,149.901 121.012,149.572 122.063 C 149.243 123.114,148.641 125.958,148.234 128.384 C 147.828 130.810,147.247 133.389,146.944 134.115 C 146.641 134.841,146.215 137.529,145.997 140.089 C 145.778 142.649,145.255 146.088,144.833 147.730 C 144.412 149.373,143.773 152.436,143.415 154.537 C 143.056 156.638,142.554 158.787,142.297 159.312 C 142.041 159.838,141.710 161.987,141.561 164.088 C 141.398 166.394,140.938 168.968,140.401 170.583 C 139.912 172.053,139.395 174.607,139.252 176.257 C 139.109 177.907,138.580 180.743,138.077 182.560 C 137.185 185.787,136.907 188.356,137.398 188.847 C 137.692 189.140,139.828 187.938,139.828 187.480 C 139.828 187.303,140.946 186.042,142.311 184.676 C 143.677 183.310,144.795 182.042,144.795 181.857 C 144.795 181.673,145.096 181.425,145.463 181.306 C 145.831 181.186,146.766 180.444,147.542 179.656 C 150.165 176.990,150.460 176.698,152.213 175.027 C 153.176 174.110,153.964 173.219,153.964 173.047 C 153.964 172.876,154.325 172.621,154.766 172.481 C 155.695 172.186,158.300 169.680,158.664 168.730 C 158.801 168.374,159.218 167.970,159.590 167.832 C 159.963 167.695,161.299 166.585,162.560 165.366 C 165.858 162.179,172.669 156.089,173.113 155.930 C 173.508 155.790,173.734 155.595,177.819 151.862 C 182.263 147.802,182.845 147.300,184.695 145.941 C 185.695 145.205,187.084 144.088,187.781 143.457 C 190.715 140.803,191.433 140.210,191.709 140.210 C 191.870 140.210,192.862 139.394,193.915 138.395 C 194.967 137.397,196.503 136.071,197.328 135.448 C 198.152 134.825,199.091 134.090,199.413 133.815 C 199.736 133.539,200.498 132.889,201.106 132.369 C 201.715 131.849,202.354 131.423,202.526 131.423 C 202.804 131.423,203.862 130.516,206.528 127.991 C 206.966 127.576,207.861 127.011,208.515 126.736 C 209.170 126.460,210.101 125.850,210.584 125.379 C 213.249 122.778,214.361 121.872,214.887 121.872 C 215.209 121.872,215.473 121.716,215.473 121.526 C 215.473 121.159,218.688 118.636,220.388 117.669 C 220.942 117.354,221.739 116.787,222.159 116.410 C 224.264 114.522,226.351 113.054,227.255 112.827 C 227.809 112.688,228.578 112.174,228.963 111.684 C 229.349 111.194,229.903 110.793,230.196 110.793 C 230.488 110.793,230.918 110.438,231.150 110.004 C 231.382 109.570,232.291 108.903,233.169 108.521 C 234.047 108.140,235.183 107.378,235.692 106.827 C 236.202 106.277,236.828 105.826,237.084 105.826 C 237.340 105.826,237.649 105.568,237.770 105.253 C 237.891 104.937,238.597 104.389,239.339 104.036 C 240.081 103.682,240.688 103.250,240.688 103.076 C 240.688 102.902,241.492 102.375,242.474 101.905 C 243.457 101.435,244.653 100.664,245.131 100.191 C 245.610 99.718,246.202 99.331,246.446 99.331 C 246.691 99.331,247.475 98.818,248.190 98.191 C 248.904 97.563,249.915 96.943,250.437 96.812 C 250.958 96.681,251.385 96.412,251.385 96.213 C 251.385 96.014,252.287 95.428,253.391 94.912 C 254.494 94.395,256.342 93.287,257.498 92.449 C 258.653 91.611,260.201 90.732,260.936 90.496 C 261.671 90.259,262.590 89.789,262.977 89.450 C 263.866 88.672,266.724 87.000,268.959 85.949 C 269.904 85.505,270.936 84.913,271.251 84.634 C 271.757 84.187,272.571 83.698,275.306 82.198 C 275.702 81.981,277.574 81.087,279.465 80.211 C 281.356 79.336,283.161 78.410,283.477 78.152 C 284.023 77.706,287.223 76.409,287.778 76.409 C 288.258 76.409,289.114 78.500,288.872 79.083 C 288.307 80.444,282.953 85.897,280.186 87.930 C 279.230 88.633,277.903 89.656,277.237 90.205 C 276.571 90.754,275.511 91.467,274.880 91.789 C 274.249 92.112,273.406 92.738,273.006 93.180 C 272.606 93.621,272.066 93.983,271.806 93.983 C 271.546 93.983,271.231 94.249,271.106 94.575 C 270.980 94.901,270.093 95.515,269.133 95.940 C 266.895 96.930,264.135 98.792,263.866 99.493 C 263.751 99.793,263.060 100.321,262.331 100.667 C 261.602 101.013,260.705 101.627,260.338 102.033 C 259.972 102.438,259.459 102.770,259.199 102.770 C 258.759 102.770,258.099 103.244,254.018 106.495 C 253.160 107.178,252.221 107.736,251.931 107.736 C 251.640 107.736,251.121 108.166,250.777 108.691 C 250.433 109.217,249.931 109.647,249.661 109.647 C 249.392 109.647,247.951 110.590,246.460 111.742 C 244.968 112.894,243.145 114.089,242.409 114.397 C 241.672 114.704,241.070 115.133,241.070 115.348 C 241.070 115.563,240.511 116.026,239.828 116.376 C 239.145 116.725,238.022 117.503,237.332 118.105 C 236.641 118.706,235.918 119.198,235.725 119.198 C 235.532 119.198,234.918 119.610,234.362 120.113 C 231.314 122.869,229.085 124.530,227.246 125.415 C 226.681 125.686,225.852 126.375,225.403 126.946 C 224.954 127.517,224.407 127.985,224.188 127.985 C 223.969 127.985,223.337 128.430,222.783 128.975 C 221.069 130.660,218.483 132.569,217.915 132.569 C 217.617 132.569,216.529 133.417,215.498 134.454 C 214.467 135.490,213.066 136.627,212.385 136.979 C 211.704 137.331,210.704 138.030,210.162 138.533 C 209.620 139.035,208.972 139.446,208.721 139.446 C 208.471 139.446,207.899 139.962,207.450 140.592 C 207.001 141.223,206.480 141.738,206.292 141.738 C 206.105 141.738,205.156 142.511,204.184 143.455 C 202.299 145.288,197.572 148.615,196.854 148.615 C 196.617 148.615,196.317 148.946,196.188 149.351 C 196.060 149.756,195.404 150.439,194.730 150.868 C 193.137 151.882,191.723 153.013,189.544 155.018 C 188.571 155.913,187.134 156.945,186.352 157.310 C 185.569 157.676,184.925 158.186,184.919 158.444 C 184.914 158.702,184.441 159.217,183.868 159.590 C 183.295 159.963,181.877 161.170,180.717 162.273 C 179.557 163.376,178.474 164.279,178.311 164.279 C 178.147 164.279,176.904 165.310,175.549 166.571 C 174.194 167.832,172.858 168.863,172.581 168.863 C 171.952 168.863,169.138 171.456,168.527 172.599 C 168.277 173.066,167.898 173.448,167.685 173.448 C 167.472 173.448,166.271 174.436,165.017 175.645 C 163.763 176.853,161.448 178.959,159.873 180.325 C 158.299 181.691,153.846 185.946,149.978 189.780 C 146.111 193.615,142.772 196.753,142.559 196.753 C 142.346 196.753,142.063 197.095,141.930 197.514 C 141.701 198.237,138.114 202.510,135.674 204.967 C 133.836 206.817,132.697 210.130,132.205 215.049 C 131.966 217.442,131.510 220.021,131.192 220.780 C 130.873 221.538,130.434 223.620,130.216 225.406 C 129.997 227.192,129.406 229.636,128.902 230.838 C 128.171 232.579,127.901 234.207,127.570 238.861 C 127.304 242.587,126.959 245.005,126.614 245.545 C 124.619 248.673,125.598 249.259,133.839 249.865 C 136.818 250.085,140.888 250.446,142.884 250.668 C 148.475 251.290,163.509 251.488,168.481 251.006 C 177.823 250.100,180.868 249.899,191.448 249.492 C 200.361 249.149,202.759 248.939,204.437 248.357 C 205.810 247.880,208.578 247.503,212.756 247.224 C 216.199 246.994,219.210 246.646,219.447 246.450 C 220.226 245.803,223.235 245.278,228.115 244.939 C 231.145 244.729,233.266 244.397,233.846 244.043 C 234.352 243.733,236.442 243.177,238.491 242.807 C 240.540 242.438,242.216 242.002,242.216 241.840 C 242.216 241.374,244.134 240.769,246.319 240.547 C 247.437 240.433,249.039 239.922,249.948 239.391 C 250.843 238.868,252.607 238.258,253.868 238.036 C 255.129 237.815,256.631 237.527,257.206 237.398 C 259.107 236.969,258.618 240.663,256.693 241.274 C 256.348 241.383,255.450 242.070,254.699 242.800 C 253.948 243.529,253.044 244.126,252.691 244.126 C 252.337 244.126,251.488 244.472,250.803 244.895 C 250.119 245.318,248.551 245.849,247.320 246.075 C 246.089 246.300,244.565 246.797,243.935 247.179 C 243.305 247.561,241.929 248.135,240.879 248.453 C 239.828 248.772,238.314 249.377,237.515 249.796 C 236.648 250.252,234.876 250.663,233.122 250.816 C 231.505 250.956,229.137 251.479,227.860 251.978 C 226.467 252.522,224.253 252.985,222.321 253.138 C 220.205 253.304,218.686 253.641,217.889 254.121 C 216.584 254.906,211.965 255.580,207.857 255.584 C 206.172 255.586,204.895 255.831,203.795 256.364 C 202.141 257.165,196.711 257.842,191.737 257.867 C 190.345 257.874,188.598 258.133,187.856 258.443 C 183.807 260.135,145.799 260.294,140.774 258.640 C 139.360 258.174,131.088 257.066,127.344 256.840 C 123.778 256.625,123.577 256.911,123.057 262.927 C 122.836 265.486,122.418 267.891,122.079 268.546 C 121.753 269.176,121.303 271.031,121.078 272.668 C 120.853 274.305,120.265 276.848,119.770 278.319 C 119.220 279.954,118.716 282.738,118.475 285.480 C 118.258 287.948,117.894 290.316,117.666 290.741 C 117.439 291.167,116.928 292.781,116.533 294.329 C 115.484 298.430,113.385 302.421,112.108 302.741 C 109.308 303.444,108.018 299.815,109.786 296.210 C 110.340 295.081,110.793 293.672,110.793 293.079 C 110.793 292.486,111.125 291.036,111.530 289.857 C 112.255 287.752,113.849 279.124,113.849 277.310 C 113.849 276.803,114.101 276.027,114.410 275.587 C 114.718 275.147,115.082 274.034,115.217 273.114 C 115.353 272.195,115.941 269.465,116.524 267.049 C 119.238 255.797,118.989 255.157,110.220 250.869 C 108.302 249.931,107.196 248.902,105.436 246.418 C 104.157 244.612,104.107 238.853,105.353 236.802 C 105.778 236.102,106.247 234.928,106.395 234.193 C 106.543 233.457,106.984 232.300,107.375 231.621 C 107.765 230.941,108.332 229.553,108.634 228.536 C 108.936 227.519,109.957 225.479,110.903 224.004 C 111.849 222.529,112.922 220.736,113.289 220.021 C 113.655 219.305,114.324 218.347,114.775 217.891 C 115.225 217.435,116.245 215.974,117.041 214.644 C 117.837 213.314,119.076 211.452,119.796 210.506 C 120.515 209.561,121.518 208.172,122.024 207.421 C 123.078 205.856,125.222 203.629,125.675 203.629 C 125.844 203.629,126.205 203.091,126.478 202.433 C 126.750 201.774,127.373 200.760,127.863 200.179 C 128.696 199.189,129.266 197.140,130.622 190.258 C 130.850 189.102,131.286 185.578,131.591 182.426 C 131.896 179.274,132.390 176.094,132.689 175.358 C 132.988 174.623,133.341 172.527,133.474 170.702 C 133.607 168.876,133.888 166.931,134.098 166.379 C 134.308 165.827,134.479 164.773,134.479 164.038 C 134.479 163.302,134.679 162.327,134.923 161.871 C 135.167 161.415,135.589 158.266,135.859 154.873 C 136.191 150.718,136.607 147.978,137.135 146.477 C 137.577 145.217,137.925 143.246,137.934 141.943 C 137.944 140.675,138.118 138.863,138.323 137.918 C 138.527 136.972,138.854 135.339,139.049 134.288 C 139.244 133.238,139.576 131.519,139.785 130.468 C 139.995 129.417,140.343 126.323,140.560 123.591 C 140.806 120.500,141.247 117.799,141.728 116.437 C 142.154 115.234,142.502 113.444,142.502 112.459 C 142.502 110.560,143.452 104.555,144.077 102.500 C 144.282 101.827,144.609 99.248,144.804 96.770 C 145.286 90.629,145.561 88.674,146.162 87.106 C 146.444 86.371,146.855 84.080,147.076 82.016 C 147.762 75.614,150.547 72.793,153.718 75.288 M121.490 223.156 C 120.124 224.628,118.814 226.387,118.578 227.064 C 118.342 227.741,117.280 229.579,116.218 231.149 C 115.156 232.718,114.160 234.518,114.004 235.148 C 113.849 235.778,113.338 237.018,112.868 237.904 C 111.242 240.970,111.217 244.615,112.818 245.112 C 113.280 245.255,114.125 245.701,114.695 246.103 C 115.266 246.505,116.583 246.934,117.623 247.057 L 119.514 247.281 120.282 245.776 C 121.465 243.456,122.153 240.137,122.408 235.511 C 122.553 232.874,122.916 230.504,123.375 229.198 C 124.172 226.931,124.869 220.426,124.312 220.460 C 124.126 220.471,122.856 221.684,121.490 223.156 " stroke="none" fill="#1c346b" fill-rule="evenodd"></path><path id="path2" d="M396.594 0.612 C 396.547 1.770,398.161 3.990,399.154 4.134 C 399.619 4.201,400.000 4.072,400.000 3.847 C 400.000 3.622,399.683 3.438,399.295 3.438 C 398.410 3.438,397.381 2.323,396.954 0.901 C 396.699 0.049,396.620 -0.014,396.594 0.612 M149.614 75.296 C 148.048 76.529,147.513 77.945,147.076 82.016 C 146.855 84.080,146.444 86.371,146.162 87.106 C 145.561 88.674,145.286 90.629,144.804 96.770 C 144.609 99.248,144.282 101.827,144.077 102.500 C 143.452 104.555,142.502 110.560,142.502 112.459 C 142.502 113.444,142.154 115.234,141.728 116.437 C 141.247 117.799,140.806 120.500,140.560 123.591 C 140.343 126.323,139.995 129.417,139.785 130.468 C 139.576 131.519,139.244 133.238,139.049 134.288 C 138.854 135.339,138.527 136.972,138.323 137.918 C 138.118 138.863,137.944 140.675,137.934 141.943 C 137.925 143.246,137.577 145.217,137.135 146.477 C 136.607 147.978,136.191 150.718,135.859 154.873 C 135.589 158.266,135.167 161.415,134.923 161.871 C 134.679 162.327,134.479 163.302,134.479 164.038 C 134.479 164.773,134.308 165.827,134.098 166.379 C 133.888 166.931,133.607 168.876,133.474 170.702 C 133.341 172.527,132.988 174.623,132.689 175.358 C 132.390 176.094,131.896 179.274,131.591 182.426 C 131.286 185.578,130.850 189.102,130.622 190.258 C 129.266 197.140,128.696 199.189,127.863 200.179 C 127.373 200.760,126.750 201.774,126.478 202.433 C 126.205 203.091,125.844 203.629,125.675 203.629 C 125.222 203.629,123.078 205.856,122.024 207.421 C 121.518 208.172,120.515 209.561,119.796 210.506 C 119.076 211.452,117.837 213.314,117.041 214.644 C 116.245 215.974,115.225 217.435,114.775 217.891 C 114.324 218.347,113.655 219.305,113.289 220.021 C 112.922 220.736,111.849 222.529,110.903 224.004 C 109.957 225.479,108.936 227.519,108.634 228.536 C 108.332 229.553,107.765 230.941,107.375 231.621 C 106.984 232.300,106.543 233.457,106.395 234.193 C 106.247 234.928,105.778 236.102,105.353 236.802 C 102.655 241.243,105.123 248.376,110.220 250.869 C 118.989 255.157,119.238 255.797,116.524 267.049 C 115.941 269.465,115.353 272.195,115.217 273.114 C 115.082 274.034,114.718 275.147,114.410 275.587 C 114.101 276.027,113.849 276.803,113.849 277.310 C 113.849 279.124,112.255 287.752,111.530 289.857 C 111.125 291.036,110.793 292.486,110.793 293.079 C 110.793 293.672,110.340 295.081,109.786 296.210 C 108.018 299.815,109.308 303.444,112.108 302.741 C 113.385 302.421,115.484 298.430,116.533 294.329 C 116.928 292.781,117.439 291.167,117.666 290.741 C 117.894 290.316,118.258 287.948,118.475 285.480 C 118.716 282.738,119.220 279.954,119.770 278.319 C 120.265 276.848,120.853 274.305,121.078 272.668 C 121.303 271.031,121.753 269.176,122.079 268.546 C 122.418 267.891,122.836 265.486,123.057 262.927 C 123.577 256.911,123.778 256.625,127.344 256.840 C 131.088 257.066,139.360 258.174,140.774 258.640 C 145.799 260.294,183.807 260.135,187.856 258.443 C 188.598 258.133,190.345 257.874,191.737 257.867 C 196.711 257.842,202.141 257.165,203.795 256.364 C 204.895 255.831,206.172 255.586,207.857 255.584 C 211.965 255.580,216.584 254.906,217.889 254.121 C 218.686 253.641,220.205 253.304,222.321 253.138 C 224.253 252.985,226.467 252.522,227.860 251.978 C 229.137 251.479,231.505 250.956,233.122 250.816 C 234.876 250.663,236.648 250.252,237.515 249.796 C 238.314 249.377,239.828 248.772,240.879 248.453 C 241.929 248.135,243.305 247.561,243.935 247.179 C 244.565 246.797,246.089 246.300,247.320 246.075 C 248.551 245.849,250.119 245.318,250.803 244.895 C 251.488 244.472,252.337 244.126,252.691 244.126 C 253.044 244.126,253.948 243.529,254.699 242.800 C 255.450 242.070,256.348 241.383,256.693 241.274 C 258.618 240.663,259.107 236.969,257.206 237.398 C 256.631 237.527,255.129 237.815,253.868 238.036 C 252.607 238.258,250.843 238.868,249.948 239.391 C 249.039 239.922,247.437 240.433,246.319 240.547 C 244.134 240.769,242.216 241.374,242.216 241.840 C 242.216 242.002,240.540 242.438,238.491 242.807 C 236.442 243.177,234.352 243.733,233.846 244.043 C 233.266 244.397,231.145 244.729,228.115 244.939 C 223.235 245.278,220.226 245.803,219.447 246.450 C 219.210 246.646,216.199 246.994,212.756 247.224 C 208.578 247.503,205.810 247.880,204.437 248.357 C 202.759 248.939,200.361 249.149,191.448 249.492 C 180.868 249.899,177.823 250.100,168.481 251.006 C 163.509 251.488,148.475 251.290,142.884 250.668 C 140.888 250.446,136.818 250.085,133.839 249.865 C 125.598 249.259,124.619 248.673,126.614 245.545 C 126.959 245.005,127.304 242.587,127.570 238.861 C 127.901 234.207,128.171 232.579,128.902 230.838 C 129.406 229.636,129.997 227.192,130.216 225.406 C 130.434 223.620,130.873 221.538,131.192 220.780 C 131.510 220.021,131.966 217.442,132.205 215.049 C 132.697 210.130,133.836 206.817,135.674 204.967 C 138.114 202.510,141.701 198.237,141.930 197.514 C 142.063 197.095,142.346 196.753,142.559 196.753 C 142.772 196.753,146.111 193.615,149.978 189.780 C 153.846 185.946,158.299 181.691,159.873 180.325 C 161.448 178.959,163.763 176.853,165.017 175.645 C 166.271 174.436,167.472 173.448,167.685 173.448 C 167.898 173.448,168.277 173.066,168.527 172.599 C 169.138 171.456,171.952 168.863,172.581 168.863 C 172.858 168.863,174.194 167.832,175.549 166.571 C 176.904 165.310,178.147 164.279,178.311 164.279 C 178.474 164.279,179.557 163.376,180.717 162.273 C 181.877 161.170,183.295 159.963,183.868 159.590 C 184.441 159.217,184.914 158.702,184.919 158.444 C 184.925 158.186,185.569 157.676,186.352 157.310 C 187.134 156.945,188.571 155.913,189.544 155.018 C 191.723 153.013,193.137 151.882,194.730 150.868 C 195.404 150.439,196.060 149.756,196.188 149.351 C 196.317 148.946,196.617 148.615,196.854 148.615 C 197.572 148.615,202.299 145.288,204.184 143.455 C 205.156 142.511,206.105 141.738,206.292 141.738 C 206.480 141.738,207.001 141.223,207.450 140.592 C 207.899 139.962,208.471 139.446,208.721 139.446 C 208.972 139.446,209.620 139.035,210.162 138.533 C 210.704 138.030,211.704 137.331,212.385 136.979 C 213.066 136.627,214.467 135.490,215.498 134.454 C 216.529 133.417,217.617 132.569,217.915 132.569 C 218.483 132.569,221.069 130.660,222.783 128.975 C 223.337 128.430,223.969 127.985,224.188 127.985 C 224.407 127.985,224.954 127.517,225.403 126.946 C 225.852 126.375,226.681 125.686,227.246 125.415 C 229.085 124.530,231.314 122.869,234.362 120.113 C 234.918 119.610,235.532 119.198,235.725 119.198 C 235.918 119.198,236.641 118.706,237.332 118.105 C 238.022 117.503,239.145 116.725,239.828 116.376 C 240.511 116.026,241.070 115.563,241.070 115.348 C 241.070 115.133,241.672 114.704,242.409 114.397 C 243.145 114.089,244.968 112.894,246.460 111.742 C 247.951 110.590,249.392 109.647,249.661 109.647 C 249.931 109.647,250.433 109.217,250.777 108.691 C 251.121 108.166,251.640 107.736,251.931 107.736 C 252.221 107.736,253.160 107.178,254.018 106.495 C 258.099 103.244,258.759 102.770,259.199 102.770 C 259.459 102.770,259.972 102.438,260.338 102.033 C 260.705 101.627,261.602 101.013,262.331 100.667 C 263.060 100.321,263.751 99.793,263.866 99.493 C 264.135 98.792,266.895 96.930,269.133 95.940 C 270.093 95.515,270.980 94.901,271.106 94.575 C 271.231 94.249,271.546 93.983,271.806 93.983 C 272.066 93.983,272.606 93.621,273.006 93.180 C 273.406 92.738,274.249 92.112,274.880 91.789 C 275.511 91.467,276.571 90.754,277.237 90.205 C 277.903 89.656,279.230 88.633,280.186 87.930 C 282.953 85.897,288.307 80.444,288.872 79.083 C 289.114 78.500,288.258 76.409,287.778 76.409 C 287.223 76.409,284.023 77.706,283.477 78.152 C 283.161 78.410,281.356 79.336,279.465 80.211 C 277.574 81.087,275.702 81.981,275.306 82.198 C 272.571 83.698,271.757 84.187,271.251 84.634 C 270.936 84.913,269.904 85.505,268.959 85.949 C 266.724 87.000,263.866 88.672,262.977 89.450 C 262.590 89.789,261.671 90.259,260.936 90.496 C 260.201 90.732,258.653 91.611,257.498 92.449 C 256.342 93.287,254.494 94.395,253.391 94.912 C 252.287 95.428,251.385 96.014,251.385 96.213 C 251.385 96.412,250.958 96.681,250.437 96.812 C 249.915 96.943,248.904 97.563,248.190 98.191 C 247.475 98.818,246.691 99.331,246.446 99.331 C 246.202 99.331,245.610 99.718,245.131 100.191 C 244.653 100.664,243.457 101.435,242.474 101.905 C 241.492 102.375,240.688 102.902,240.688 103.076 C 240.688 103.250,240.081 103.682,239.339 104.036 C 238.597 104.389,237.891 104.937,237.770 105.253 C 237.649 105.568,237.340 105.826,237.084 105.826 C 236.828 105.826,236.202 106.277,235.692 106.827 C 235.183 107.378,234.047 108.140,233.169 108.521 C 232.291 108.903,231.382 109.570,231.150 110.004 C 230.918 110.438,230.488 110.793,230.196 110.793 C 229.903 110.793,229.349 111.194,228.963 111.684 C 228.578 112.174,227.809 112.688,227.255 112.827 C 226.351 113.054,224.264 114.522,222.159 116.410 C 221.739 116.787,220.942 117.354,220.388 117.669 C 218.688 118.636,215.473 121.159,215.473 121.526 C 215.473 121.716,215.209 121.872,214.887 121.872 C 214.361 121.872,213.249 122.778,210.584 125.379 C 210.101 125.850,209.170 126.460,208.515 126.736 C 207.861 127.011,206.966 127.576,206.528 127.991 C 203.862 130.516,202.804 131.423,202.526 131.423 C 202.354 131.423,201.715 131.849,201.106 132.369 C 200.498 132.889,199.736 133.539,199.413 133.815 C 199.091 134.090,198.152 134.825,197.328 135.448 C 196.503 136.071,194.967 137.397,193.915 138.395 C 192.862 139.394,191.870 140.210,191.709 140.210 C 191.433 140.210,190.715 140.803,187.781 143.457 C 187.084 144.088,185.695 145.205,184.695 145.941 C 182.845 147.300,182.263 147.802,177.819 151.862 C 173.734 155.595,173.508 155.790,173.113 155.930 C 172.669 156.089,165.858 162.179,162.560 165.366 C 161.299 166.585,159.963 167.695,159.590 167.832 C 159.218 167.970,158.801 168.374,158.664 168.730 C 158.300 169.680,155.695 172.186,154.766 172.481 C 154.325 172.621,153.964 172.876,153.964 173.047 C 153.964 173.219,153.176 174.110,152.213 175.027 C 150.460 176.698,150.165 176.990,147.542 179.656 C 146.766 180.444,145.831 181.186,145.463 181.306 C 145.096 181.425,144.795 181.673,144.795 181.857 C 144.795 182.042,143.677 183.310,142.311 184.676 C 140.946 186.042,139.828 187.303,139.828 187.480 C 139.828 187.938,137.692 189.140,137.398 188.847 C 136.907 188.356,137.185 185.787,138.077 182.560 C 138.580 180.743,139.109 177.907,139.252 176.257 C 139.395 174.607,139.912 172.053,140.401 170.583 C 140.938 168.968,141.398 166.394,141.561 164.088 C 141.710 161.987,142.041 159.838,142.297 159.312 C 142.554 158.787,143.056 156.638,143.415 154.537 C 143.773 152.436,144.412 149.373,144.833 147.730 C 145.255 146.088,145.778 142.649,145.997 140.089 C 146.215 137.529,146.641 134.841,146.944 134.115 C 147.247 133.389,147.828 130.810,148.234 128.384 C 148.641 125.958,149.243 123.114,149.572 122.063 C 149.901 121.012,150.354 117.832,150.579 114.995 C 150.803 112.159,151.210 109.407,151.482 108.881 C 151.979 107.919,153.582 99.271,153.582 97.551 C 153.582 97.045,153.852 96.217,154.183 95.712 C 154.578 95.109,154.902 93.246,155.127 90.281 C 155.315 87.800,155.582 84.556,155.721 83.075 C 156.308 76.779,153.033 72.607,149.614 75.296 M152.440 76.281 C 154.862 77.712,155.104 86.776,152.844 91.444 C 152.235 92.704,152.025 93.879,152.008 96.133 C 151.984 99.492,151.409 103.152,150.906 103.152 C 150.386 103.152,150.186 104.153,149.620 109.577 C 149.174 113.846,148.955 114.799,148.249 115.552 C 147.492 116.358,147.388 116.971,147.200 121.738 C 147.022 126.251,146.882 127.149,146.252 127.842 C 145.440 128.736,144.815 132.146,144.802 135.746 C 144.794 138.110,144.324 139.446,143.499 139.446 C 142.893 139.446,142.509 142.870,142.505 148.313 C 142.503 151.789,142.442 152.079,141.536 152.919 C 140.653 153.738,140.552 154.160,140.365 157.805 C 140.097 163.069,139.959 163.717,139.239 163.120 C 138.933 162.865,138.659 162.119,138.631 161.462 C 138.487 158.096,137.981 164.805,137.951 170.472 C 137.918 176.792,137.908 176.864,136.951 177.752 C 136.076 178.563,135.942 179.097,135.555 183.312 C 134.963 189.747,134.757 188.893,134.837 180.326 C 134.899 173.570,134.977 172.816,135.901 170.089 C 136.687 167.767,136.928 166.215,137.040 162.751 C 137.220 157.188,137.406 156.186,138.087 157.117 C 138.785 158.072,139.402 153.651,139.421 147.557 C 139.435 142.971,139.638 141.170,140.225 140.401 C 140.901 139.518,141.391 136.505,141.576 132.104 C 141.798 126.833,141.941 126.074,142.712 126.074 C 143.465 126.074,143.583 125.199,143.773 118.243 C 143.913 113.144,144.085 111.718,144.812 109.647 C 145.469 107.776,145.752 105.861,145.962 101.884 C 146.202 97.318,146.345 96.492,147.022 95.771 C 147.709 95.039,147.851 94.154,148.185 88.501 C 148.486 83.407,148.698 81.917,149.202 81.360 C 149.687 80.825,149.757 80.407,149.495 79.621 C 149.236 78.845,149.332 78.218,149.878 77.115 C 150.697 75.458,150.923 75.385,152.440 76.281 M259.706 94.305 C 260.083 94.544,260.001 94.870,259.348 95.732 C 258.883 96.346,258.463 96.904,258.417 96.972 C 258.370 97.041,257.642 97.176,256.799 97.273 C 254.943 97.486,254.247 96.753,255.977 96.407 C 256.639 96.275,257.252 95.933,257.339 95.648 C 257.426 95.362,257.578 94.871,257.677 94.556 C 257.870 93.936,258.920 93.806,259.706 94.305 M256.290 99.158 C 256.970 100.651,256.833 101.171,255.587 101.815 C 254.957 102.141,254.441 102.665,254.441 102.979 C 254.441 103.293,254.030 103.737,253.528 103.966 C 253.026 104.195,252.439 104.769,252.224 105.241 C 251.997 105.740,251.359 106.194,250.700 106.326 C 249.899 106.486,249.495 106.838,249.323 107.527 C 249.142 108.247,248.828 108.500,248.118 108.500 C 247.529 108.500,246.639 109.019,245.820 109.838 C 245.084 110.573,244.240 111.175,243.944 111.175 C 243.648 111.175,243.166 111.517,242.873 111.935 C 242.206 112.887,240.171 114.392,238.309 115.310 C 237.525 115.695,236.472 116.427,235.967 116.936 C 233.999 118.920,232.284 120.344,231.862 120.344 C 231.619 120.344,230.712 120.948,229.846 121.687 C 228.980 122.426,227.841 123.374,227.316 123.793 C 224.010 126.430,222.596 127.534,221.314 128.479 C 217.953 130.956,216.737 131.898,215.473 133.006 C 213.829 134.445,208.146 138.681,207.853 138.684 C 207.737 138.685,206.695 139.589,205.540 140.692 C 204.384 141.795,202.923 143.025,202.292 143.425 C 201.662 143.825,200.802 144.470,200.382 144.859 C 198.138 146.935,196.977 147.851,196.590 147.851 C 196.353 147.851,195.721 148.324,195.185 148.902 C 194.650 149.479,193.314 150.554,192.217 151.289 C 191.119 152.025,189.253 153.529,188.070 154.632 C 186.887 155.735,185.772 156.638,185.592 156.638 C 185.412 156.638,183.462 158.185,181.259 160.076 C 179.056 161.968,177.108 163.515,176.931 163.515 C 176.753 163.515,175.608 164.460,174.386 165.616 C 173.164 166.772,172.007 167.717,171.815 167.717 C 171.624 167.717,169.848 169.308,167.868 171.251 C 165.889 173.195,162.807 175.903,161.019 177.268 C 159.232 178.634,156.730 180.740,155.460 181.948 C 154.190 183.157,152.986 184.145,152.784 184.145 C 152.582 184.145,152.252 184.578,152.051 185.107 C 151.850 185.636,151.276 186.225,150.775 186.415 C 150.275 186.605,149.760 187.035,149.632 187.369 C 149.504 187.703,148.965 188.142,148.434 188.344 C 147.903 188.546,147.469 188.901,147.469 189.132 C 147.469 189.775,144.274 192.829,143.434 192.990 C 143.016 193.070,142.640 193.503,142.571 193.986 C 142.498 194.503,142.101 194.929,141.569 195.062 C 141.084 195.184,140.504 195.687,140.280 196.180 C 140.055 196.673,139.485 197.132,139.013 197.201 C 138.417 197.288,138.059 197.694,137.843 198.531 C 137.595 199.493,137.377 199.696,136.762 199.535 C 135.599 199.231,136.139 196.918,137.772 195.208 C 138.542 194.401,139.064 193.465,139.064 192.889 C 139.064 192.338,139.638 191.253,140.401 190.361 C 141.137 189.502,141.738 188.537,141.738 188.217 C 141.738 187.897,142.068 187.530,142.470 187.403 C 142.873 187.275,143.385 186.646,143.608 186.006 C 143.835 185.356,144.368 184.749,144.816 184.632 C 145.257 184.517,145.773 184.013,145.963 183.513 C 146.153 183.013,146.728 182.444,147.240 182.249 C 147.752 182.055,148.314 181.667,148.489 181.387 C 148.663 181.108,149.279 180.579,149.857 180.211 C 150.435 179.844,150.907 179.357,150.907 179.129 C 150.907 178.902,151.327 178.385,151.840 177.982 C 152.353 177.579,152.880 176.909,153.012 176.494 C 153.143 176.080,153.425 175.740,153.638 175.740 C 154.148 175.740,157.402 172.476,157.402 171.963 C 157.402 171.744,157.729 171.390,158.128 171.176 C 158.527 170.963,159.752 169.882,160.851 168.775 C 161.950 167.668,163.249 166.497,163.738 166.173 C 164.227 165.849,165.654 164.646,166.907 163.499 C 168.161 162.352,169.415 161.223,169.694 160.991 C 169.973 160.759,170.887 159.768,171.726 158.791 C 172.564 157.813,173.525 156.926,173.860 156.820 C 174.194 156.713,175.427 155.726,176.600 154.626 C 180.418 151.043,183.445 148.434,184.342 147.953 C 184.825 147.694,186.263 146.490,187.537 145.278 C 188.810 144.067,190.405 142.646,191.081 142.120 C 191.756 141.595,192.750 140.725,193.289 140.187 C 193.828 139.649,194.785 138.890,195.415 138.500 C 196.747 137.677,197.989 136.626,199.376 135.148 C 199.918 134.570,200.581 134.097,200.849 134.097 C 201.118 134.097,201.718 133.711,202.182 133.238 C 202.647 132.765,203.403 132.120,203.861 131.805 C 206.484 130.001,210.033 127.257,211.051 126.246 C 211.697 125.605,212.724 124.746,213.333 124.336 C 213.942 123.926,214.812 123.333,215.266 123.018 C 215.721 122.703,216.907 121.902,217.903 121.239 C 218.898 120.576,220.113 119.630,220.601 119.138 C 221.090 118.645,222.070 117.851,222.779 117.371 C 223.489 116.892,224.670 116.077,225.406 115.560 C 226.141 115.042,227.273 114.370,227.920 114.065 C 228.567 113.760,229.340 113.217,229.639 112.857 C 229.937 112.497,230.740 111.969,231.423 111.684 C 232.106 111.398,232.665 110.986,232.665 110.768 C 232.665 110.550,233.298 110.107,234.072 109.784 C 234.845 109.461,235.946 108.696,236.517 108.084 C 237.088 107.473,237.922 106.972,238.370 106.972 C 238.817 106.972,239.285 106.707,239.410 106.383 C 239.534 106.059,240.259 105.475,241.021 105.086 C 241.783 104.698,242.734 104.017,243.135 103.575 C 243.535 103.132,244.267 102.770,244.761 102.770 C 245.255 102.770,246.033 102.340,246.490 101.815 C 246.947 101.289,247.560 100.860,247.854 100.860 C 248.147 100.860,248.892 100.355,249.509 99.738 C 250.644 98.603,251.465 98.346,254.284 98.243 C 255.615 98.194,255.912 98.329,256.290 99.158 M260.554 98.949 C 260.554 99.160,260.220 99.331,259.812 99.331 C 259.405 99.331,258.965 99.160,258.835 98.949 C 258.701 98.733,259.022 98.567,259.576 98.567 C 260.114 98.567,260.554 98.739,260.554 98.949 M124.381 223.773 C 124.232 225.606,123.780 228.047,123.375 229.198 C 122.916 230.504,122.553 232.874,122.408 235.511 C 122.153 240.137,121.465 243.456,120.282 245.776 L 119.514 247.281 117.623 247.057 C 116.583 246.934,115.266 246.505,114.695 246.103 C 114.125 245.701,113.280 245.255,112.818 245.112 C 111.217 244.615,111.242 240.970,112.868 237.904 C 113.338 237.018,113.849 235.778,114.004 235.148 C 114.160 234.518,115.156 232.718,116.218 231.149 C 117.280 229.579,118.342 227.741,118.578 227.064 C 118.999 225.854,123.648 220.500,124.312 220.460 C 124.505 220.448,124.534 221.881,124.381 223.773 M128.367 222.732 C 128.367 223.572,128.233 224.260,128.070 224.260 C 127.907 224.260,127.839 223.572,127.919 222.732 C 127.999 221.891,128.133 221.203,128.216 221.203 C 128.299 221.203,128.367 221.891,128.367 222.732 M256.263 239.998 C 256.179 240.249,255.645 240.580,255.075 240.732 C 254.506 240.884,253.731 241.391,253.352 241.858 C 252.781 242.563,252.256 242.714,250.248 242.748 C 247.144 242.801,246.814 242.113,249.549 241.291 C 250.664 240.956,251.910 240.426,252.318 240.112 C 253.223 239.416,256.488 239.322,256.263 239.998 M246.797 243.734 C 247.618 244.253,246.982 244.699,244.359 245.447 C 243.122 245.800,241.746 246.324,241.303 246.612 C 240.859 246.899,239.293 247.337,237.822 247.585 C 236.226 247.854,234.821 248.334,234.336 248.777 C 233.820 249.248,232.566 249.650,230.897 249.878 C 229.453 250.075,227.584 250.476,226.743 250.769 C 224.489 251.554,222.066 252.077,219.499 252.331 C 218.246 252.455,215.840 252.964,214.150 253.461 C 212.461 253.958,209.337 254.537,207.209 254.746 C 205.080 254.955,202.759 255.386,202.051 255.703 C 200.558 256.372,197.341 256.663,186.246 257.131 C 181.834 257.317,175.817 257.640,172.875 257.849 C 167.599 258.224,151.142 257.542,150.114 256.906 C 149.888 256.767,146.283 256.529,142.102 256.378 C 134.620 256.109,134.487 256.089,133.604 255.137 C 133.111 254.604,132.461 254.082,132.161 253.975 C 130.620 253.430,133.562 253.260,150.369 252.924 C 175.037 252.430,182.226 252.045,189.876 250.809 C 191.662 250.520,195.444 250.178,198.281 250.049 C 201.117 249.921,204.470 249.575,205.731 249.281 C 207.718 248.819,218.549 247.707,224.522 247.353 C 225.611 247.289,226.876 247.036,227.333 246.791 C 227.790 246.547,229.649 246.089,231.465 245.773 C 233.280 245.458,235.460 245.077,236.308 244.927 C 237.156 244.777,238.102 244.493,238.409 244.296 C 239.471 243.616,245.927 243.184,246.797 243.734 M396.698 375.454 C 392.589 380.224,392.359 380.540,392.374 381.389 C 392.387 382.098,392.474 382.041,392.913 381.032 C 393.201 380.370,393.671 379.682,393.959 379.503 C 394.247 379.325,395.496 378.018,396.736 376.600 C 397.975 375.181,399.217 374.021,399.495 374.021 C 399.773 374.021,400.000 373.763,400.000 373.448 C 400.000 372.258,398.845 372.960,396.698 375.454 M0.000 378.988 C 0.000 379.198,0.317 379.370,0.705 379.370 C 1.523 379.370,2.514 380.372,2.782 381.471 C 2.947 382.151,2.973 382.138,3.012 381.358 C 3.036 380.876,2.634 380.059,2.119 379.543 C 1.169 378.594,0.000 378.287,0.000 378.988 " stroke="none" fill="#6d675d" fill-rule="evenodd"></path></g></svg>